<?xml version="1.0" encoding="UTF-8" standalone="no"?>
<!DOCTYPE svg PUBLIC "-//W3C//DTD SVG 1.1//EN" "http://www.w3.org/Graphics/SVG/1.1/DTD/svg11.dtd">
<svg width="100%" height="100%" viewBox="0 0 3600 850" version="1.1" xmlns="http://www.w3.org/2000/svg" xmlns:xlink="http://www.w3.org/1999/xlink" xml:space="preserve" xmlns:serif="http://www.serif.com/" style="fill-rule:evenodd;clip-rule:evenodd;stroke-linejoin:round;stroke-miterlimit:2;">
    <g id="Artboard1" transform="matrix(5.19615,0,0,1.0625,-3600,-637.5)">
        <rect x="692.82" y="600" width="692.82" height="800" style="fill:none;"/>
        <g transform="matrix(0.192444,0,0,0.943502,567.689,56.4983)">
            <g id="bg" transform="matrix(1,0,0,0.997506,-0.179682,2.49377)">
                <path d="M692.82,800L1039.23,600L1385.64,800.008L1385.64,1200L1039.23,1400L692.827,1200L692.82,800Z" style="fill:rgb(140,43,229);"/>
            </g>
            <g transform="matrix(0.866051,-0.498768,1.00003,0.575927,-0.210168,2.4645)">
                <rect x="-400" y="1039.23" width="400" height="346.41" style="fill:rgb(140,43,229);"/>
            </g>
            <g transform="matrix(0.866051,-0.498768,5.55128e-17,1.15185,-0.210168,2.4645)">
                <rect x="1200" y="1385.64" width="400" height="346.41" style="fill:rgb(179,43,229);"/>
            </g>
            <g transform="matrix(0.866051,0.498768,-5.55128e-17,1.15185,-0.210168,2.4645)">
                <rect x="800" y="346.41" width="400" height="346.41" style="fill:rgb(124,16,187);"/>
            </g>
        </g>
        <g transform="matrix(0.833333,2.35294,9.20045e-18,4.70588,714.315,924.699)">
            <path d="M0,5.68L0.003,0L22.561,0.045L22.636,22.621L0,22.618L0.033,8.46L16.996,8.493L16.954,5.632L0,5.68ZM16.987,16.968L16.99,14.074L5.667,14.11L5.685,16.959L16.987,16.968Z" style="fill:white;"/>
            <path d="M25.367,31.059L25.367,25.379L47.925,25.424L48,48L25.364,47.997L25.4,33.839L42.357,33.872L42.315,31.011L25.367,31.059ZM42.348,42.347L42.354,39.453L31.033,39.492L31.051,42.338L42.348,42.347Z" style="fill:white;"/>
            <path d="M31.058,0.008L31.096,16.964L48,16.963L47.989,22.614L25.373,22.621L25.364,0L31.058,0.008Z" style="fill:white;fill-rule:nonzero;"/>
            <path d="M22.636,25.379L22.598,47.966L17.011,48L16.918,30.972L14.212,30.972L14.14,48L8.472,48L8.5,30.972L5.741,30.972L5.703,48L0.022,48L0,25.393L22.636,25.379Z" style="fill:white;fill-rule:nonzero;"/>
        </g>
        <g transform="matrix(0.132182,-0.373219,7.33756e-18,0.746438,550.036,250.733)">
            <g transform="matrix(186.362,0,0,186.362,1689.35,2136.98)">
                <path d="M0.567,-0.286C0.544,-0.183 0.476,-0.135 0.391,-0.135C0.285,-0.135 0.2,-0.221 0.2,-0.335C0.2,-0.449 0.285,-0.534 0.391,-0.534C0.477,-0.534 0.545,-0.487 0.566,-0.387L0.728,-0.428C0.696,-0.587 0.556,-0.685 0.391,-0.685C0.192,-0.685 0.035,-0.531 0.035,-0.335C0.035,-0.138 0.192,0.015 0.391,0.015C0.563,0.015 0.698,-0.083 0.729,-0.251L0.567,-0.286Z" style="fill:rgb(235,235,235);fill-rule:nonzero;"/>
            </g>
            <g transform="matrix(186.362,0,0,186.362,1831.73,2136.98)">
                <path d="M0.058,-0.67L0.058,-0L0.323,-0C0.544,-0 0.69,-0.136 0.69,-0.335C0.69,-0.534 0.544,-0.67 0.323,-0.67L0.058,-0.67ZM0.223,-0.143L0.223,-0.527L0.317,-0.527C0.442,-0.527 0.524,-0.451 0.524,-0.335C0.524,-0.219 0.442,-0.143 0.317,-0.143L0.223,-0.143Z" style="fill:rgb(235,235,235);fill-rule:nonzero;"/>
            </g>
            <g transform="matrix(186.362,0,0,186.362,1966.84,2136.98)">
                <path d="M0.717,-0L0.448,-0.383L0.689,-0.67L0.502,-0.67L0.223,-0.339L0.223,-0.67L0.058,-0.67L0.058,-0L0.223,-0L0.223,-0.115L0.341,-0.256L0.517,-0L0.717,-0Z" style="fill:rgb(235,235,235);fill-rule:nonzero;"/>
            </g>
        </g>
        <g transform="matrix(0.222222,0,0,0.941176,651.507,634.916)">
            <g transform="matrix(192,0,0,192,906.958,452.221)">
                <path d="M0.567,-0.286C0.544,-0.183 0.476,-0.135 0.391,-0.135C0.285,-0.135 0.2,-0.221 0.2,-0.335C0.2,-0.449 0.285,-0.534 0.391,-0.534C0.477,-0.534 0.545,-0.487 0.566,-0.387L0.728,-0.428C0.696,-0.587 0.556,-0.685 0.391,-0.685C0.192,-0.685 0.035,-0.531 0.035,-0.335C0.035,-0.138 0.192,0.015 0.391,0.015C0.563,0.015 0.698,-0.083 0.729,-0.251L0.567,-0.286Z" style="fill:rgb(179,43,229);fill-rule:nonzero;"/>
            </g>
            <g transform="matrix(192,0,0,192,1053.65,452.221)">
                <path d="M0.391,-0.509C0.309,-0.509 0.254,-0.466 0.218,-0.406L0.218,-0.502L0.058,-0.502L0.058,-0L0.218,-0L0.218,-0.157C0.218,-0.287 0.279,-0.345 0.391,-0.345L0.42,-0.345L0.427,-0.505C0.415,-0.508 0.405,-0.509 0.391,-0.509Z" style="fill:rgb(179,43,229);fill-rule:nonzero;"/>
            </g>
            <g transform="matrix(192,0,0,192,1137.05,452.221)">
                <path d="M0.303,-0.515C0.151,-0.515 0.025,-0.409 0.025,-0.251C0.025,-0.092 0.151,0.014 0.303,0.014C0.452,0.014 0.578,-0.092 0.578,-0.251C0.578,-0.409 0.452,-0.515 0.303,-0.515ZM0.303,-0.121C0.238,-0.121 0.179,-0.172 0.179,-0.251C0.179,-0.329 0.238,-0.381 0.303,-0.381C0.365,-0.381 0.424,-0.329 0.424,-0.251C0.424,-0.172 0.365,-0.121 0.303,-0.121Z" style="fill:rgb(179,43,229);fill-rule:nonzero;"/>
            </g>
            <g transform="matrix(192,0,0,192,1252.83,452.221)">
                <path d="M0.024,-0.131C0.041,-0.028 0.142,0.015 0.26,0.015C0.392,0.015 0.488,-0.043 0.488,-0.154C0.488,-0.228 0.444,-0.285 0.349,-0.305L0.231,-0.329C0.199,-0.336 0.193,-0.35 0.193,-0.364C0.193,-0.382 0.207,-0.403 0.25,-0.403C0.299,-0.403 0.329,-0.375 0.334,-0.344L0.48,-0.373C0.46,-0.46 0.377,-0.517 0.252,-0.517C0.125,-0.517 0.036,-0.45 0.036,-0.347C0.036,-0.268 0.089,-0.218 0.182,-0.201L0.284,-0.181C0.321,-0.174 0.334,-0.161 0.334,-0.144C0.334,-0.122 0.311,-0.104 0.269,-0.104C0.226,-0.104 0.187,-0.12 0.18,-0.163L0.024,-0.131Z" style="fill:rgb(179,43,229);fill-rule:nonzero;"/>
            </g>
            <g transform="matrix(192,0,0,192,1350.21,452.221)">
                <path d="M0.024,-0.131C0.041,-0.028 0.142,0.015 0.26,0.015C0.392,0.015 0.488,-0.043 0.488,-0.154C0.488,-0.228 0.444,-0.285 0.349,-0.305L0.231,-0.329C0.199,-0.336 0.193,-0.35 0.193,-0.364C0.193,-0.382 0.207,-0.403 0.25,-0.403C0.299,-0.403 0.329,-0.375 0.334,-0.344L0.48,-0.373C0.46,-0.46 0.377,-0.517 0.252,-0.517C0.125,-0.517 0.036,-0.45 0.036,-0.347C0.036,-0.268 0.089,-0.218 0.182,-0.201L0.284,-0.181C0.321,-0.174 0.334,-0.161 0.334,-0.144C0.334,-0.122 0.311,-0.104 0.269,-0.104C0.226,-0.104 0.187,-0.12 0.18,-0.163L0.024,-0.131Z" style="fill:rgb(179,43,229);fill-rule:nonzero;"/>
            </g>
            <g transform="matrix(192,0,0,192,1449.09,452.221)">
                <rect x="0.06" y="-0.33" width="0.331" height="0.135" style="fill:rgb(179,43,229);fill-rule:nonzero;"/>
            </g>
            <g transform="matrix(192,0,0,192,1535.68,452.221)">
                <path d="M0.672,-0L0.462,-0.238C0.57,-0.262 0.638,-0.341 0.638,-0.451C0.638,-0.582 0.542,-0.67 0.397,-0.67L0.058,-0.67L0.058,-0L0.223,-0L0.223,-0.23L0.271,-0.23L0.473,-0L0.672,-0ZM0.223,-0.368L0.223,-0.529L0.379,-0.529C0.438,-0.529 0.476,-0.497 0.476,-0.449C0.476,-0.4 0.438,-0.368 0.379,-0.368L0.223,-0.368Z" style="fill:rgb(179,43,229);fill-rule:nonzero;"/>
            </g>
            <g transform="matrix(192,0,0,192,1662.23,452.221)">
                <path d="M0.55,-0.251C0.547,-0.415 0.433,-0.517 0.291,-0.517C0.145,-0.517 0.025,-0.409 0.025,-0.251C0.025,-0.092 0.145,0.015 0.29,0.015C0.405,0.015 0.496,-0.036 0.539,-0.142L0.397,-0.171C0.37,-0.122 0.327,-0.113 0.29,-0.113C0.236,-0.113 0.195,-0.15 0.182,-0.21L0.55,-0.21L0.55,-0.251ZM0.291,-0.387C0.337,-0.387 0.377,-0.362 0.392,-0.308L0.185,-0.308C0.2,-0.359 0.246,-0.387 0.291,-0.387Z" style="fill:rgb(179,43,229);fill-rule:nonzero;"/>
            </g>
            <g transform="matrix(192,0,0,192,1772.63,452.221)">
                <path d="M0.586,-0.502L0.426,-0.502L0.426,-0.459C0.388,-0.496 0.336,-0.517 0.27,-0.517C0.137,-0.517 0.025,-0.409 0.025,-0.251C0.025,-0.092 0.137,0.015 0.27,0.015C0.336,0.015 0.388,-0.006 0.426,-0.043L0.426,-0.006C0.426,0.073 0.363,0.109 0.291,0.109C0.239,0.109 0.21,0.092 0.173,0.047L0.04,0.129C0.089,0.21 0.176,0.25 0.291,0.25C0.454,0.25 0.586,0.165 0.586,0.01L0.586,-0.502ZM0.303,-0.121C0.233,-0.121 0.182,-0.173 0.182,-0.251C0.182,-0.328 0.233,-0.381 0.303,-0.381C0.368,-0.381 0.426,-0.328 0.426,-0.251C0.426,-0.173 0.368,-0.121 0.303,-0.121Z" style="fill:rgb(179,43,229);fill-rule:nonzero;"/>
            </g>
            <g transform="matrix(192,0,0,192,1896.27,452.221)">
                <path d="M0.146,-0.741C0.092,-0.741 0.054,-0.699 0.054,-0.65C0.054,-0.599 0.092,-0.561 0.146,-0.561C0.2,-0.561 0.239,-0.599 0.239,-0.65C0.239,-0.699 0.2,-0.741 0.146,-0.741ZM0.226,-0L0.226,-0.502L0.066,-0.502L0.066,-0L0.226,-0Z" style="fill:rgb(179,43,229);fill-rule:nonzero;"/>
            </g>
            <g transform="matrix(192,0,0,192,1952.34,452.221)">
                <path d="M0.303,-0.515C0.151,-0.515 0.025,-0.409 0.025,-0.251C0.025,-0.092 0.151,0.014 0.303,0.014C0.452,0.014 0.578,-0.092 0.578,-0.251C0.578,-0.409 0.452,-0.515 0.303,-0.515ZM0.303,-0.121C0.238,-0.121 0.179,-0.172 0.179,-0.251C0.179,-0.329 0.238,-0.381 0.303,-0.381C0.365,-0.381 0.424,-0.329 0.424,-0.251C0.424,-0.172 0.365,-0.121 0.303,-0.121Z" style="fill:rgb(179,43,229);fill-rule:nonzero;"/>
            </g>
            <g transform="matrix(192,0,0,192,2068.11,452.221)">
                <path d="M0.372,-0.517C0.309,-0.517 0.256,-0.494 0.218,-0.454L0.218,-0.502L0.058,-0.502L0.058,-0L0.218,-0L0.218,-0.233C0.218,-0.33 0.259,-0.373 0.322,-0.373C0.373,-0.373 0.408,-0.333 0.408,-0.274L0.408,-0L0.567,-0L0.567,-0.308C0.567,-0.434 0.489,-0.517 0.372,-0.517Z" style="fill:rgb(179,43,229);fill-rule:nonzero;"/>
            </g>
            <g transform="matrix(192,0,0,192,2231.31,452.221)">
                <path d="M0.058,-0.67L0.058,-0L0.223,-0L0.223,-0.205L0.381,-0.205C0.536,-0.205 0.634,-0.298 0.634,-0.439C0.634,-0.577 0.539,-0.67 0.388,-0.67L0.058,-0.67ZM0.223,-0.343L0.223,-0.529L0.369,-0.529C0.433,-0.529 0.472,-0.491 0.472,-0.437C0.472,-0.38 0.433,-0.343 0.369,-0.343L0.223,-0.343Z" style="fill:rgb(179,43,229);fill-rule:nonzero;"/>
            </g>
            <g transform="matrix(192,0,0,192,2355.48,452.221)">
                <path d="M0.284,-0.517C0.164,-0.517 0.076,-0.456 0.054,-0.359L0.205,-0.328C0.213,-0.372 0.241,-0.391 0.289,-0.391C0.331,-0.391 0.36,-0.363 0.36,-0.321L0.36,-0.311L0.232,-0.311C0.098,-0.311 0.023,-0.247 0.023,-0.149C0.023,-0.05 0.098,0.015 0.21,0.015C0.277,0.015 0.325,-0.007 0.36,-0.037L0.36,-0L0.514,-0L0.514,-0.318C0.514,-0.446 0.425,-0.517 0.284,-0.517ZM0.255,-0.105C0.213,-0.105 0.185,-0.125 0.185,-0.157C0.185,-0.188 0.21,-0.209 0.25,-0.209L0.36,-0.209L0.36,-0.198C0.36,-0.142 0.31,-0.105 0.255,-0.105Z" style="fill:rgb(179,43,229);fill-rule:nonzero;"/>
            </g>
            <g transform="matrix(192,0,0,192,2462.23,452.221)">
                <path d="M0.391,-0.509C0.309,-0.509 0.254,-0.466 0.218,-0.406L0.218,-0.502L0.058,-0.502L0.058,-0L0.218,-0L0.218,-0.157C0.218,-0.287 0.279,-0.345 0.391,-0.345L0.42,-0.345L0.427,-0.505C0.415,-0.508 0.405,-0.509 0.391,-0.509Z" style="fill:rgb(179,43,229);fill-rule:nonzero;"/>
            </g>
            <g transform="matrix(192,0,0,192,2544.14,452.221)">
                <path d="M0.284,-0.517C0.164,-0.517 0.076,-0.456 0.054,-0.359L0.205,-0.328C0.213,-0.372 0.241,-0.391 0.289,-0.391C0.331,-0.391 0.36,-0.363 0.36,-0.321L0.36,-0.311L0.232,-0.311C0.098,-0.311 0.023,-0.247 0.023,-0.149C0.023,-0.05 0.098,0.015 0.21,0.015C0.277,0.015 0.325,-0.007 0.36,-0.037L0.36,-0L0.514,-0L0.514,-0.318C0.514,-0.446 0.425,-0.517 0.284,-0.517ZM0.255,-0.105C0.213,-0.105 0.185,-0.125 0.185,-0.157C0.185,-0.188 0.21,-0.209 0.25,-0.209L0.36,-0.209L0.36,-0.198C0.36,-0.142 0.31,-0.105 0.255,-0.105Z" style="fill:rgb(179,43,229);fill-rule:nonzero;"/>
            </g>
            <g transform="matrix(192,0,0,192,2650.89,452.221)">
                <path d="M0.708,-0.517C0.63,-0.517 0.57,-0.484 0.53,-0.432C0.496,-0.487 0.436,-0.517 0.366,-0.517C0.301,-0.517 0.252,-0.494 0.218,-0.456L0.218,-0.502L0.058,-0.502L0.058,-0L0.218,-0L0.218,-0.246C0.218,-0.33 0.256,-0.373 0.314,-0.373C0.362,-0.373 0.399,-0.337 0.399,-0.28L0.399,-0L0.559,-0L0.559,-0.246C0.559,-0.33 0.598,-0.373 0.657,-0.373C0.704,-0.373 0.741,-0.337 0.741,-0.28L0.741,-0L0.9,-0L0.9,-0.314C0.9,-0.436 0.815,-0.517 0.708,-0.517Z" style="fill:rgb(179,43,229);fill-rule:nonzero;"/>
            </g>
            <g transform="matrix(192,0,0,192,2833.48,452.221)">
                <path d="M0.55,-0.251C0.547,-0.415 0.433,-0.517 0.291,-0.517C0.145,-0.517 0.025,-0.409 0.025,-0.251C0.025,-0.092 0.145,0.015 0.29,0.015C0.405,0.015 0.496,-0.036 0.539,-0.142L0.397,-0.171C0.37,-0.122 0.327,-0.113 0.29,-0.113C0.236,-0.113 0.195,-0.15 0.182,-0.21L0.55,-0.21L0.55,-0.251ZM0.291,-0.387C0.337,-0.387 0.377,-0.362 0.392,-0.308L0.185,-0.308C0.2,-0.359 0.246,-0.387 0.291,-0.387Z" style="fill:rgb(179,43,229);fill-rule:nonzero;"/>
            </g>
            <g transform="matrix(192,0,0,192,2943.88,452.221)">
                <path d="M0.393,-0.148C0.372,-0.136 0.342,-0.128 0.32,-0.128C0.278,-0.128 0.253,-0.149 0.253,-0.201L0.253,-0.375L0.401,-0.375L0.401,-0.502L0.253,-0.502L0.253,-0.67L0.093,-0.67L0.093,-0.502L0.002,-0.502L0.002,-0.375L0.093,-0.375L0.093,-0.185C0.093,-0.053 0.168,0.015 0.293,0.015C0.35,0.015 0.391,-0.001 0.43,-0.022L0.393,-0.148Z" style="fill:rgb(179,43,229);fill-rule:nonzero;"/>
            </g>
            <g transform="matrix(192,0,0,192,3025.35,452.221)">
                <path d="M0.55,-0.251C0.547,-0.415 0.433,-0.517 0.291,-0.517C0.145,-0.517 0.025,-0.409 0.025,-0.251C0.025,-0.092 0.145,0.015 0.29,0.015C0.405,0.015 0.496,-0.036 0.539,-0.142L0.397,-0.171C0.37,-0.122 0.327,-0.113 0.29,-0.113C0.236,-0.113 0.195,-0.15 0.182,-0.21L0.55,-0.21L0.55,-0.251ZM0.291,-0.387C0.337,-0.387 0.377,-0.362 0.392,-0.308L0.185,-0.308C0.2,-0.359 0.246,-0.387 0.291,-0.387Z" style="fill:rgb(179,43,229);fill-rule:nonzero;"/>
            </g>
            <g transform="matrix(192,0,0,192,3135.75,452.221)">
                <path d="M0.391,-0.509C0.309,-0.509 0.254,-0.466 0.218,-0.406L0.218,-0.502L0.058,-0.502L0.058,-0L0.218,-0L0.218,-0.157C0.218,-0.287 0.279,-0.345 0.391,-0.345L0.42,-0.345L0.427,-0.505C0.415,-0.508 0.405,-0.509 0.391,-0.509Z" style="fill:rgb(179,43,229);fill-rule:nonzero;"/>
            </g>
        </g>
    </g>
</svg>
